<svg version="1.1" viewBox="0.0 0.0 102.0 100.0" fill="none" stroke="none" stroke-linecap="square" stroke-miterlimit="10" xmlns:xlink="http://www.w3.org/1999/xlink" xmlns="http://www.w3.org/2000/svg"><clipPath id="p.0"><path d="m0 0l102.0 0l0 100.0l-102.0 0l0 -100.0z" clip-rule="nonzero"/></clipPath><path fill="#000000" fill-opacity="0.0" d="m0 0l102.0 0l0 100.0l-102.0 0z" fill-rule="evenodd"/><path fill="#000000" fill-opacity="0.0" d="m-14.296588 -59.204723l90.48819 0l0 109.480316l-90.48819 0z" fill-rule="evenodd"/><path class="fill-colour" d="m75.109665 80.20152q-10.40625 0 -15.734379 -8.546875q-4.53125 -7.1875 -4.53125 -17.593746q0 -13.328125 6.796875 -24.000002q6.796879 -10.671875 20.656254 -17.0625l2.40625 4.796874q-8.265625 3.46875 -14.265625 10.9375q-6.0 7.468752 -6.0 15.203127q0 3.1875 0.796875 5.59375q4.265625 -3.46875 9.875 -3.46875q7.1875 0 12.125 4.671875q4.9375 4.65625 4.9375 12.390625q0 7.203121 -4.9375 12.140621q-4.9375 4.9375 -12.125 4.9375zm-45.34375 0q-10.390625 0 -15.718751 -8.546875q-4.546875 -7.1875 -4.546875 -17.593746q0 -13.328125 6.796876 -24.000002q6.8125 -10.671875 20.671873 -17.0625l2.40625 4.796874q-8.265623 3.46875 -14.265623 10.9375q-6.0 7.468752 -6.0 15.203127q0 3.1875 0.796875 5.59375q4.265625 -3.46875 9.859375 -3.46875q7.203123 0 12.140623 4.671875q4.9375 4.65625 4.9375 12.390625q0 7.203121 -4.9375 12.140621q-4.9375 4.9375 -12.140623 4.9375z" fill-rule="nonzero"/></svg>