<svg version="1.1" viewBox="0.0 0.0 495.0 162.0" preserveAspectRatio="none" fill="none" stroke="none" stroke-linecap="square" stroke-miterlimit="10" xmlns:xlink="http://www.w3.org/1999/xlink" xmlns="http://www.w3.org/2000/svg"><clipPath id="p.0"><path d="m0 0l495.0 0l0 162.0l-495.0 0l0 -162.0z" clip-rule="nonzero"/></clipPath><path fill="#000000" fill-opacity="0.0" d="m0 0l495.0 0l0 162.0l-495.0 0z" fill-rule="evenodd"/><path fill="#000000" fill-opacity="0.0" d="m-24.493439 162.65741c19.714012 -10.135345 73.817696 -49.312447 118.28407 -60.812004c44.466385 -11.499565 103.39012 3.7041855 148.5142 -8.185371c45.124084 -11.889549 77.10681 -49.702927 122.23035 -63.151955c45.123535 -13.449028 123.75903 -14.618507 148.51083 -17.54221" fill-rule="evenodd"/><path class="stroke-colour" stroke-width="24.0" stroke-linejoin="round" stroke-linecap="butt" d="m-24.493439 162.65741c19.714012 -10.135345 73.817696 -49.312447 118.28407 -60.812004c44.466385 -11.499565 103.39012 3.7041855 148.5142 -8.185371c45.124084 -11.889549 77.10681 -49.702927 122.23035 -63.151955c45.123535 -13.449028 123.75903 -14.618507 148.51083 -17.54221" fill-rule="evenodd"/><path class="fill-colour" d="m-7.0 139.00262l520.063 0l0 23.65355l-520.063 0z" fill-rule="evenodd"/><path class="fill-colour" d="m34.0 120.002625l479.0551 0l0 23.65355l-479.0551 0z" fill-rule="evenodd"/><path class="fill-colour" d="m75.0 104.002625l438.04724 0l0 23.653542l-438.04724 0z" fill-rule="evenodd"/><path class="fill-colour" d="m248.0 85.002625l265.03937 0l0 23.653542l-265.03937 0z" fill-rule="evenodd"/><path class="fill-colour" d="m287.0 69.34908l226.04724 0l0 23.653542l-226.04724 0z" fill-rule="evenodd"/><path class="fill-colour" d="m313.0 45.695538l200.06299 0l0 35.62205l-200.06299 0z" fill-rule="evenodd"/><path class="fill-colour" d="m353.0 31.002625l160.06299 0l0 23.653542l-160.06299 0z" fill-rule="evenodd"/><path class="fill-colour" d="m422.0 18.695538l91.055115 0l0 23.653545l-91.055115 0z" fill-rule="evenodd"/></svg>