<svg version="1.1" viewBox="0.0 0.0 495.16272965879267 104.11811023622047" preserveAspectRatio="none" fill="none" stroke="none" stroke-linecap="square" stroke-miterlimit="10" xmlns:xlink="http://www.w3.org/1999/xlink" xmlns="http://www.w3.org/2000/svg"><clipPath id="p.0"><path d="m0 0l495.16272 0l0 104.11811l-495.16272 0l0 -104.11811z" clip-rule="nonzero"/></clipPath><path fill="#000000" fill-opacity="0.0" d="m0 0l495.16272 0l0 104.11811l-495.16272 0z" fill-rule="evenodd"/><path fill="#000000" fill-opacity="0.0" d="m-11.562992 25.913435c11.73785 -1.234909 39.61625 -13.995277 70.4271 -7.4094505c30.810856 6.585827 66.021194 39.926773 114.43802 46.924416c48.416824 6.997635 120.51932 -13.3773 176.06293 -4.9385834c55.54364 8.438713 130.99902 46.30906 157.19882 55.570877" fill-rule="evenodd"/><path class="stroke-colour" stroke-width="24.0" stroke-linejoin="round" stroke-linecap="butt" d="m-11.562992 25.913435c11.73785 -1.234909 39.61625 -13.995277 70.4271 -7.4094505c30.810856 6.585827 66.021194 39.926773 114.43802 46.924416c48.416824 6.997635 120.51932 -13.3773 176.06293 -4.9385834c55.54364 8.438713 130.99902 46.30906 157.19882 55.570877" fill-rule="evenodd"/><path class="fill-colour" d="m-7.2650332 104.54855l506.4882 0.3149643l0 14.645668l-506.4882 -0.3149643z" fill-rule="evenodd"/><path class="fill-colour" d="m-7.2650886 92.097115l477.6063 0.28346252l0 14.645668l-477.6063 -0.28346252z" fill-rule="evenodd"/><path class="fill-colour" d="m-7.265085 81.461945l450.96063 0.28346252l0 14.645668l-450.96063 -0.28346252z" fill-rule="evenodd"/><path class="fill-colour" d="m-7.2650914 70.16535l411.02365 0.25196838l0 14.645676l-411.02365 -0.251976z" fill-rule="evenodd"/><path class="fill-colour" d="m-7.265091 58.7769l375.90552 0.25196838l0 14.645668l-375.90552 -0.25196838z" fill-rule="evenodd"/><path class="fill-colour" d="m-7.265087 48.2021l129.5433 0.09449005l0 14.645668l-129.5433 -0.09448624z" fill-rule="evenodd"/><path class="fill-colour" d="m-7.2650867 36.060368l105.32283 0.062992096l0 14.645668l-105.32283 -0.062992096z" fill-rule="evenodd"/><path class="fill-colour" d="m-7.2650867 26.270342l105.32283 0.062992096l0 14.64567l-105.32283 -0.062992096z" fill-rule="evenodd"/></svg>